<!-- Generated by IcoMoon.io -->
<svg version="1.1" xmlns="http://www.w3.org/2000/svg" width="768" height="768" viewBox="0 0 768 768">
<title>codepen</title>
<g class="social-group" fill="none" fill-rule="evenodd">
        <circle class="social-group__outline" stroke="#000" stroke-width="20" cx="300" cy="300" r="262.5" />
        <circle class="social-group__inner-circle" fill="#000" cx="300" cy="300" r="252.5" />
</g>
<path fill="#000" d="M168.192 384l-72.192 50.528v-101.088zM672 434.528l-72.192-50.528 72.192-50.528zM544 423.072l102.784 71.968-230.784 149.984v-132.384zM279.808 384l104.192-72.928 104.192 72.928-104.192 72.928zM121.216 495.008l102.784-71.936 128 89.6v132.384zM401.824 37.408c-5.088-3.424-11.232-5.408-17.824-5.408s-12.736 1.984-17.824 5.408l-319.008 207.36c-3.584 2.24-6.816 5.216-9.376 8.896-4 5.696-5.888 12.256-5.792 18.72v223.232c-0.064 5.888 1.472 11.84 4.736 17.152 1.312 2.176 2.912 4.192 4.768 6.016 1.504 1.504 3.2 2.848 5.056 4.064l0.608 0.384 319.008 207.36c5.088 3.424 11.232 5.408 17.824 5.408s12.736-1.984 17.824-5.408l319.008-207.36c3.584-2.208 6.816-5.184 9.376-8.864 4-5.696 5.856-12.256 5.792-18.752v-223.232c0.064-5.888-1.472-11.84-4.736-17.152-1.312-2.144-2.912-4.192-4.768-6.016-1.504-1.504-3.2-2.848-5.056-4.064l-0.608-0.384zM416 255.328v-132.352l230.784 150.016-102.784 71.936zM352 122.976v132.384l-128 89.6-102.784-71.968z"></path>
</svg>
